# xmcd
#
# Track frame offsets: 
#        150
#        20102
#        38079
#        57286
#        76258
#        92835
#        112262
#        128389
#        149031
#        166778
#        182560
#        200977
#        222804
#        243033
#        265015
#        279129
#        295106
#        316886
#
# Disc length: 4452 seconds
#
# Revision: 3
# Processed by: cddbd v1.5.2PL0 Copyright (c) Steve Scherf et al.
# Submitted via: ExactAudioCopy v0.99pb5
#
DISCID=fe116212
DTITLE=Various Artist - The No.1 Ballads Album
DYEAR=1998
DGENRE=Pop
TTITLE0=Robbie Williams - Angel
TTITLE1=Jewel - Foolish Games
TTITLE2=Savage Garden - To The Moon and Back
TTITLE3=Spice Girls - Too Much
TTITLE4=Usher - Yuo Make Me Wanna
TTITLE5=Eternal - Angel Of Mine
TTITLE6=Buckshot Lefonque - Another Day
TTITLE7=Mariah Carey - Butterfly
TTITLE8=Peter Andre - Lonely
TTITLE9=Allure - All Cried Out
TTITLE10=The Verve - All Drugs Don't Work
TTITLE11=Sheryl Crow - Tomorrow Never Dies
TTITLE12=Boys II Men - 4 seasons Of Loneliness
TTITLE13=Celine Dion and Barbara Streisand - Tell Him
TTITLE14=Hanson - I Will Come To You
TTITLE15=Blackstreet - (Money Can't) Buy Me Love
TTITLE16=Eros Ramazzoti and Tina Turner - Cose Della Vita (Can't Stop Th
TTITLE16=inking Of You)
TTITLE17=Various Artist - Perfect Day
EXTD=
EXTT0=
EXTT1=
EXTT2=
EXTT3=
EXTT4=
EXTT5=
EXTT6=
EXTT7=
EXTT8=
EXTT9=
EXTT10=
EXTT11=
EXTT12=
EXTT13=
EXTT14=
EXTT15=
EXTT16=
EXTT17=
PLAYORDER=
